<svg width="1600" height="560" viewBox="0 0 1600 560" fill="none" xmlns="http://www.w3.org/2000/svg" role="img" aria-label="AgroLidar hero banner">
  <defs>
    <linearGradient id="bg" x1="0" y1="0" x2="1600" y2="560" gradientUnits="userSpaceOnUse">
      <stop stop-color="#081425"/>
      <stop offset="0.58" stop-color="#0B2237"/>
      <stop offset="1" stop-color="#113A3F"/>
    </linearGradient>
    <linearGradient id="field" x1="0" y1="280" x2="1600" y2="560" gradientUnits="userSpaceOnUse">
      <stop stop-color="#0D3D32"/>
      <stop offset="1" stop-color="#0A2D25"/>
    </linearGradient>
    <linearGradient id="beam" x1="800" y1="182" x2="1050" y2="370" gradientUnits="userSpaceOnUse">
      <stop stop-color="#34D399" stop-opacity="0.55"/>
      <stop offset="1" stop-color="#34D399" stop-opacity="0"/>
    </linearGradient>
    <filter id="glow" x="0" y="0" width="1600" height="560" filterUnits="userSpaceOnUse">
      <feGaussianBlur stdDeviation="26"/>
    </filter>
  </defs>

  <rect width="1600" height="560" fill="url(#bg)"/>

  <path d="M0 360L220 322L420 344L620 288L780 320L1020 270L1220 312L1600 256V560H0V360Z" fill="url(#field)"/>

  <g stroke="#1B5E52" stroke-opacity="0.5" stroke-width="2">
    <path d="M0 410L1600 300"/>
    <path d="M0 450L1600 340"/>
    <path d="M0 490L1600 380"/>
    <path d="M0 530L1600 420"/>
    <path d="M130 560L260 330"/>
    <path d="M330 560L450 310"/>
    <path d="M560 560L670 300"/>
    <path d="M770 560L880 286"/>
    <path d="M980 560L1090 276"/>
    <path d="M1190 560L1300 288"/>
    <path d="M1390 560L1510 310"/>
  </g>

  <g opacity="0.9">
    <circle cx="980" cy="184" r="7" fill="#F4C96B"/>
    <path d="M980 190L760 420L1200 420Z" fill="url(#beam)"/>
    <g fill="#6EE7B7" fill-opacity="0.9">
      <circle cx="823" cy="365" r="3"/>
      <circle cx="886" cy="340" r="3"/>
      <circle cx="938" cy="313" r="2.8"/>
      <circle cx="1012" cy="320" r="2.8"/>
      <circle cx="1078" cy="348" r="3"/>
      <circle cx="1142" cy="370" r="2.8"/>
      <circle cx="975" cy="376" r="3.2"/>
      <circle cx="923" cy="386" r="2.8"/>
      <circle cx="1037" cy="389" r="2.8"/>
    </g>
  </g>

  <g filter="url(#glow)" opacity="0.12">
    <circle cx="560" cy="120" r="160" fill="#34D399"/>
    <circle cx="1140" cy="90" r="120" fill="#60A5FA"/>
  </g>

  <g>
    <text x="104" y="184" fill="#E5F6EE" font-family="Inter, Segoe UI, Arial, sans-serif" font-size="72" font-weight="700" letter-spacing="1.4">AgroLidar</text>
    <text x="108" y="236" fill="#9AD6C0" font-family="Inter, Segoe UI, Arial, sans-serif" font-size="28" font-weight="500">Safety-critical LiDAR perception for autonomous agriculture</text>
    <text x="108" y="284" fill="#C0D8E8" font-family="Inter, Segoe UI, Arial, sans-serif" font-size="22">Browser-native simulator • Governed ML lifecycle • Production-facing APIs</text>
  </g>
</svg>
